HIERARCHY
ROOT Hips
{
	OFFSET 0.000000 0.000000 0.000000
	CHANNELS 6 Xposition Yposition Zposition Xrotation Yrotation Zrotation
	JOINT LeftUpLeg_virtual
	{
		OFFSET 0.000000 0.000000 0.000000
		CHANNELS 3 Xrotation Yrotation Zrotation
		JOINT LeftUpLeg
		{
			OFFSET 15.427100 -6.655098 0.678600
			CHANNELS 3 Xrotation Yrotation Zrotation
			JOINT LeftLeg
			{
				OFFSET 4.081073 -39.591068 13.024000
				CHANNELS 3 Xrotation Yrotation Zrotation
				JOINT LeftFoot
				{
					OFFSET -4.081074 -37.707932 -15.979700
					CHANNELS 3 Xrotation Yrotation Zrotation
					JOINT LeftToeBase
					{
						OFFSET 5.346399 -15.068900 20.645000
						CHANNELS 3 Xrotation Yrotation Zrotation
						JOINT LeftToe_End
						{
							OFFSET 2.754700 0.931300 11.300900
							CHANNELS 3 Xrotation Yrotation Zrotation
							End Site
							{
								OFFSET 0 0 0
							}
						}
					}
				}
			}
		}
	}
	JOINT RightUpLeg_virtual
	{
		OFFSET 0.000000 0.000000 0.000000
		CHANNELS 3 Xrotation Yrotation Zrotation
		JOINT RightUpLeg
		{
			OFFSET -15.569500 -6.655098 0.678600
			CHANNELS 3 Xrotation Yrotation Zrotation
			JOINT RightLeg
			{
				OFFSET -4.081825 -39.591045 13.023800
				CHANNELS 3 Xrotation Yrotation Zrotation
				JOINT RightFoot
				{
					OFFSET 4.081824 -37.707954 -15.979600
					CHANNELS 3 Xrotation Yrotation Zrotation
					JOINT RightToeBase
					{
						OFFSET -5.346400 -15.068900 20.645000
						CHANNELS 3 Xrotation Yrotation Zrotation
						JOINT RightToe_End
						{
							OFFSET -2.754700 0.931300 11.300900
							CHANNELS 3 Xrotation Yrotation Zrotation
							End Site
							{
								OFFSET 0 0 0
							}
						}
					}
				}
			}
		}
	}
	JOINT Spine_virtual
	{
		OFFSET 0.000000 0.000000 0.000000
		CHANNELS 3 Xrotation Yrotation Zrotation
		JOINT Spine
		{
			OFFSET -0.279200 12.230698 -2.892100
			CHANNELS 3 Xrotation Yrotation Zrotation
			JOINT Spine1
			{
				OFFSET -0.232667 10.192268 -1.242267
				CHANNELS 3 Xrotation Yrotation Zrotation
				JOINT Spine1_split
				{
					OFFSET -0.232667 10.192268 -1.242267
					CHANNELS 3 Xrotation Yrotation Zrotation
					JOINT Spine2
					{
						OFFSET -0.232667 10.192268 -1.242267
						CHANNELS 3 Xrotation Yrotation Zrotation
						JOINT Neck_virtual
						{
							OFFSET 0.000000 0.000000 0.000000
							CHANNELS 3 Xrotation Yrotation Zrotation
							JOINT Neck
							{
								OFFSET -0.418800 17.814194 8.416900
								CHANNELS 3 Xrotation Yrotation Zrotation
								JOINT Head
								{
									OFFSET 0.000000 7.031097 3.806800
									CHANNELS 3 Xrotation Yrotation Zrotation
									JOINT HeadTop_End
									{
										OFFSET 0.000000 24.646606 12.978600
										CHANNELS 3 Xrotation Yrotation Zrotation
										End Site
										{
											OFFSET 0 0 0
										}
									}
								}
							}
						}
						JOINT LeftShoulder_virtual
						{
							OFFSET 0.000000 0.000000 0.000000
							CHANNELS 3 Xrotation Yrotation Zrotation
							JOINT LeftShoulder
							{
								OFFSET 8.476499 7.247704 -3.868750
								CHANNELS 3 Xrotation Yrotation Zrotation
								JOINT LeftShoulder_split
								{
									OFFSET 8.476499 7.247704 -3.868750
									CHANNELS 3 Xrotation Yrotation Zrotation
									JOINT LeftArm
									{
										OFFSET 9.308998 -2.777710 0.208600
										CHANNELS 3 Xrotation Yrotation Zrotation
										JOINT LeftForeArm
										{
											OFFSET 29.972298 0.000000 0.000000
											CHANNELS 3 Xrotation Yrotation Zrotation
											JOINT LeftHand
											{
												OFFSET 26.026505 0.000000 0.000000
												CHANNELS 3 Xrotation Yrotation Zrotation
												End Site
												{
													OFFSET 0 0 0
												}
											}
										}
									}
								}
							}
						}
						JOINT RightShoulder_virtual
						{
							OFFSET 0.000000 0.000000 0.000000
							CHANNELS 3 Xrotation Yrotation Zrotation
							JOINT RightShoulder
							{
								OFFSET -7.570500 7.247704 -3.868750
								CHANNELS 3 Xrotation Yrotation Zrotation
								JOINT RightShoulder_split
								{
									OFFSET -7.570500 7.247704 -3.868750
									CHANNELS 3 Xrotation Yrotation Zrotation
									JOINT RightArm
									{
										OFFSET -9.308998 -2.777710 0.208500
										CHANNELS 3 Xrotation Yrotation Zrotation
										JOINT RightForeArm
										{
											OFFSET -29.972300 0.000000 0.000000
											CHANNELS 3 Xrotation Yrotation Zrotation
											JOINT RightHand
											{
												OFFSET -26.026505 0.000000 0.000000
												CHANNELS 3 Xrotation Yrotation Zrotation
												End Site
												{
													OFFSET 0 0 0
												}
											}
										}
									}
								}
							}
						}
					}
				}
			}
		}
	}
}
MOTION
Frames: 5
Frame Time: 0.03333333
56.977592 84.152237 29.625738 0.000000 0.000000 0.000000 -17.177193 -58.399811 -16.419184 -15.228998 8.020212 7.339796 41.275646 -9.101279 0.817126 -21.353557 15.252675 4.028644 -3.953061 -0.650361 0.309927 0.000000 0.000000 0.000000 -14.347442 -55.592726 -14.345267 -9.839339 20.887000 -15.094677 48.542059 -7.811963 -13.675993 4.693008 -1.662544 26.616470 -32.683849 -0.975916 4.963779 0.000000 0.000000 0.000000 -15.462249 -55.706647 -14.670681 10.786413 8.233457 -0.624332 4.100717 13.787587 -1.454879 1.488475 -3.732812 0.828568 0.000000 0.000000 0.000000 3.165826 13.652630 -1.960089 -4.017733 -2.184698 0.119654 3.253961 -39.830306 4.316583 0.000000 0.000000 0.000000 3.651137 13.234302 -1.947250 -5.290656 -18.749988 -26.219230 -3.027357 3.384715 -8.082930 -22.156961 23.434712 -41.901155 -2.759672 -37.942930 -2.580296 0.000000 0.000000 0.000000 1.059387 13.312287 -1.717869 18.891852 -23.240555 22.587500 0.832794 2.405884 0.479538 18.496869 -20.196678 41.649008 179.722044 68.822680 178.638803 0.000000 0.000000 0.000000 
56.844948 83.972778 32.126938 0.000000 0.000000 0.000000 -17.504428 -56.687531 -16.868687 -13.500699 7.884986 5.939813 40.802143 -9.406101 0.417531 -22.361604 13.489214 5.433290 -3.858390 -0.559653 0.179382 0.000000 0.000000 0.000000 -14.827128 -53.888850 -14.731596 -14.804563 23.611564 -10.578463 54.417876 -5.984032 -13.161058 5.375454 5.656165 26.535553 -37.528041 -1.013568 4.635969 0.000000 0.000000 0.000000 -15.481066 -53.795557 -14.452472 11.048207 5.910347 -0.681084 4.370875 13.550195 -1.465723 1.338919 -3.935505 0.751840 0.000000 0.000000 0.000000 3.331444 13.474461 -1.963154 -3.766660 -2.185704 0.443245 4.071967 -40.534208 4.705499 0.000000 0.000000 0.000000 3.737278 13.093710 -1.978866 -5.718379 -20.245970 -26.489468 -2.687681 3.456834 -8.091105 -22.915029 20.849315 -41.532191 -2.489823 -39.085559 -2.313559 0.000000 0.000000 0.000000 1.287169 13.181569 -1.804590 19.045935 -23.718252 23.159954 0.563871 2.261241 0.551341 19.797226 -22.844768 43.102773 179.906431 68.665709 178.335160 0.000000 0.000000 0.000000 
56.663822 83.905724 34.611469 0.000000 0.000000 0.000000 -16.922770 -54.705335 -16.723865 -11.457122 7.874391 4.985411 39.344741 -9.877340 -0.302879 -23.380962 11.078119 6.588431 -4.017106 -0.502757 0.226032 0.000000 0.000000 0.000000 -14.778996 -51.893332 -14.908020 -19.553346 24.096931 -5.524201 57.945228 -4.052592 -11.776978 4.535223 11.886504 26.512525 -39.760635 -0.534332 3.628897 0.000000 0.000000 0.000000 -14.684984 -51.853048 -13.884912 11.317620 3.632618 -0.460174 4.549912 13.247234 -1.445942 1.138717 -4.106137 0.812510 0.000000 0.000000 0.000000 3.397427 13.207769 -1.927524 -3.609664 -2.138883 0.847329 4.869047 -41.143188 5.146521 0.000000 0.000000 0.000000 3.747024 12.862068 -2.012470 -6.154409 -22.010877 -26.562935 -2.407468 3.651344 -8.140429 -23.577786 18.115832 -41.337473 -2.135634 -40.226816 -1.997621 0.000000 0.000000 0.000000 1.443334 12.968391 -1.879279 19.128081 -23.977854 23.757544 0.369162 2.222367 0.599121 20.039280 -24.571554 43.662794 -179.709189 69.418238 177.881280 0.000000 0.000000 0.000000 
56.436714 84.042664 37.130283 0.000000 0.000000 0.000000 -15.448329 -52.393958 -15.904017 -9.218171 7.912072 4.485387 37.298277 -10.561638 -1.339227 -23.895734 8.227236 7.310923 -4.645190 -0.489274 0.557107 0.000000 0.000000 0.000000 -14.129483 -49.650271 -14.682450 -23.227943 22.799779 -1.304015 58.296696 -2.798845 -9.496723 3.001148 15.502530 25.859812 -38.348299 0.282438 2.258116 0.000000 0.000000 0.000000 -13.299865 -49.753652 -13.022765 11.601620 1.439560 0.028159 4.629744 12.874980 -1.405847 0.936667 -4.191435 0.937077 0.000000 0.000000 0.000000 3.378980 12.852239 -1.872610 -3.549454 -2.084353 1.313118 5.624014 -41.720582 5.717993 0.000000 0.000000 0.000000 3.692959 12.539279 -2.050384 -6.573458 -23.977147 -26.412862 -2.175210 3.869880 -8.297296 -24.119807 15.321345 -41.321572 -1.831687 -41.891654 -1.734370 0.000000 0.000000 0.000000 1.540935 12.674044 -1.954209 19.157161 -24.102278 24.298688 0.383408 2.301226 0.653735 19.117764 -25.127207 43.243372 -179.194097 70.625003 177.352788 0.000000 0.000000 0.000000 
56.179008 84.369965 39.618790 0.000000 0.000000 0.000000 -13.533187 -49.819386 -14.713903 -6.925306 7.978690 4.414221 35.248178 -11.183062 -2.671329 -23.699570 5.227707 7.979670 -5.438992 -0.519354 1.078127 0.000000 0.000000 0.000000 -12.786815 -47.125013 -13.956695 -25.579765 20.857719 1.392678 55.185138 -2.322208 -6.711679 1.603190 16.070896 24.625487 -33.285913 1.122564 0.754957 0.000000 0.000000 0.000000 -11.480941 -47.429534 -11.867971 11.880295 -0.630523 0.693844 4.635754 12.432845 -1.363318 0.884463 -4.252303 1.040907 0.000000 0.000000 0.000000 3.315899 12.438608 -1.814058 -3.590969 -2.042818 1.818264 6.315943 -42.294259 6.455920 0.000000 0.000000 0.000000 3.594241 12.149630 -2.085810 -6.944969 -26.110526 -25.994546 -2.056237 4.008300 -8.560413 -24.506430 12.602932 -41.442296 -1.699326 -44.279379 -1.604528 0.000000 0.000000 0.000000 1.596938 12.302727 -2.023579 19.199834 -24.180546 24.792504 0.467276 2.382970 0.749531 17.154758 -24.554872 42.121643 -178.573233 71.783567 176.789611 0.000000 0.000000 0.000000 
